# xmcd
#
# Track frame offsets:
#	150
#	13347
#	27903
#	46148
#	57506
#	78096
#	96365
#	111384
#	128593
#	139476
#
# Disc length: 2052 seconds
#
# Revision: 0
# Processed by: cddbd v1.5.1PL2 Copyright (c) Steve Scherf et al.
# Submitted via: dBpowerAMP V4.0
#
DISCID=8708020a
DTITLE=Mended Wings - With Mended Wings
DYEAR=1999
DGENRE=Christian
TTITLE0=He Loves Me
TTITLE1=Something I Can Feel
TTITLE2=No Other Touch
TTITLE3=God Says I Will
TTITLE4=Mended Wings
TTITLE5=Heed The Call of Calvary
TTITLE6=Cast Your Bread Upon The Water
TTITLE7=Put Your Hand In The Hand
TTITLE8=Miraculous Ways
TTITLE9=Hold On
EXTD=
EXTT0=
EXTT1=
EXTT2=
EXTT3=
EXTT4=
EXTT5=
EXTT6=
EXTT7=
EXTT8=
EXTT9=
PLAYORDER=
